# Blender 3.4.1
# www.blender.org
mtllib fireballbook1.mtl
o Cube
v -1.200000 -0.300000 0.900000
v -1.200000 0.300000 0.900000
v -1.200000 -0.300000 -0.900000
v -1.200000 0.300000 -0.900000
v 1.200000 -0.300000 0.900000
v 1.200000 0.300000 0.900000
v 1.200000 -0.300000 -0.900000
v 1.200000 0.300000 -0.900000
v -1.080000 -0.204826 0.800076
v -1.200000 -0.221220 0.892800
v -1.075119 -0.204826 0.802800
v -1.080000 0.204826 0.800076
v -1.075119 0.204826 0.802800
v -1.200000 0.221220 0.892800
v -1.080000 0.204826 -0.796476
v -1.200000 0.221220 -0.889200
v -1.080000 -0.204826 -0.796476
v -1.200000 -0.221220 -0.889200
v 1.200000 0.221220 -0.889200
v 1.080000 0.204826 -0.796476
v 1.080000 -0.204826 -0.796476
v 1.200000 -0.221220 -0.889200
v 1.080000 0.204826 0.800076
v 1.200000 0.221220 0.892800
v 1.075119 0.204826 0.802800
v 1.080000 -0.204826 0.800076
v 1.075119 -0.204826 0.802800
v 1.200000 -0.221220 0.892800
vn -0.0000 -0.1358 -0.9907
vn -0.0000 -0.0000 -1.0000
vn 1.0000 -0.0000 -0.0000
vn -1.0000 -0.0000 -0.0000
vn -0.0000 -1.0000 -0.0000
vn -0.0000 1.0000 -0.0000
vn -0.0000 -0.0910 0.9958
vn -0.0000 0.1358 -0.9907
vn -0.0000 0.0910 0.9958
vn -0.0000 -0.0000 1.0000
vn -0.0569 0.9932 0.1020
vn -0.0569 -0.9932 0.1020
vn 0.0569 -0.9932 0.1020
vn 0.0569 0.9932 0.1020
vn -0.4873 -0.0000 0.8732
vn -0.6114 -0.0000 0.7913
vn 0.6114 -0.0000 0.7913
vn 0.4873 -0.0000 0.8732
vn -0.0000 0.9838 0.1792
vn -0.0000 -0.9838 0.1792
vn 0.1354 0.9908 -0.0000
vn 0.1354 -0.9908 -0.0000
vn -0.1354 0.9908 -0.0000
vn -0.1354 -0.9908 -0.0000
vt 0.440720 0.505946
vt 0.773919 0.317668
vt 0.693446 0.370272
vt 0.720477 -0.063062
vt 0.653717 0.000604
vt 0.639352 -0.004694
vt 0.134566 0.500814
vt 0.493614 0.317668
vt 0.685110 0.504663
vt 0.000000 0.317668
vt 0.699042 0.869365
vt -0.000398 -0.000342
vt 0.444293 0.997666
vt 0.623871 0.767681
vt 0.772728 0.504663
vt 0.648640 1.000698
vt 0.635780 1.000864
vt 0.717590 1.040006
vt 0.122658 0.992534
vt 0.613154 0.445970
vt 0.493614 0.153768
vt 0.000000 0.153768
vt 0.000166 0.999415
vt 0.712827 0.149919
vt 1.002501 0.999131
vt 0.672750 0.654947
vt 1.001617 0.739826
vt 0.785881 0.870493
vt 0.717443 0.329215
vt 0.746706 0.608261
vt 0.709789 0.147659
vt 0.716935 0.837921
vt 0.760639 0.359380
vt 1.001617 0.002426
vt 0.778278 0.678374
vt 1.001617 0.673443
vt 0.663957 0.144640
vt 0.789333 1.000414
vt 0.452421 0.801174
vt 0.787258 0.735977
vt 0.713218 0.204572
vt 0.787258 -0.001423
vt 0.453155 0.800841
vt 0.786067 0.669594
vt 0.788975 0.947104
vt 0.646139 -0.061123
vt 0.726790 -0.003411
vt 0.479934 0.809369
vt 0.726440 1.001821
vt 0.782410 0.202503
vt 0.789333 0.001834
vt 0.507102 0.162211
vt 0.722654 0.796042
vt 0.064811 0.317668
vt 0.650903 0.864532
vt 0.493614 0.153768
vt 0.782390 0.823482
vt 1.002501 0.001834
vt 0.707170 0.213532
vt 0.785790 0.164835
vt 0.428803 0.317668
vt 0.639680 0.143504
vt 0.720486 0.179734
vt 0.749921 0.498547
vt 0.064811 0.153768
vt 0.645634 0.157317
vt 0.472873 0.512686
vt 0.518020 0.668563
vt 0.789385 0.000816
vt 0.545260 0.525569
vt 0.559507 0.770418
vt 1.000166 0.000757
vt 0.532161 0.785963
vt 0.502367 0.801174
vt 0.699400 0.436689
vt 0.428803 0.153768
vt 0.482400 0.778317
vt 0.479934 0.809369
vt 0.786513 1.001568
vt 0.452421 0.653664
vt 0.788449 0.617904
vt 0.590560 0.740909
vt 0.717263 0.999581
vt 0.643252 1.031652
vt 0.479934 0.645469
vt 0.725249 -0.010152
vt 0.645462 0.681393
vt 0.788449 0.999909
vt 0.453155 0.653997
vt 0.787258 0.757419
vt 0.784212 0.056112
vt 1.003248 1.004075
vt 0.932355 0.801174
vt 1.000426 0.619187
vt 0.682277 0.701099
vt 0.999235 0.999909
vt 0.933089 0.800841
vt 0.999235 0.763834
vt 0.650857 0.853444
vt 0.676774 0.781138
vt 0.674572 0.517493
vt 0.959868 0.809369
vt 0.702644 0.847860
vt 0.659774 0.808086
s 0
usemtl Material.001
f 16/54/1 4/10/1 8/22/1 19/65/1
f 18/61/2 16/54/2 19/65/2 22/76/2
f 21/72/3 20/69/3 23/79/3 26/92/3
f 14/46/4 2/4/4 4/11/4 16/55/4
f 3/7/5 7/19/5 5/13/5 1/1/5
f 2/5/6 6/16/6 8/23/6 4/12/6
f 9/25/4 12/38/4 15/51/4 17/58/4
f 24/83/7 6/17/7 2/6/7 14/47/7
f 7/20/3 22/75/3 28/100/3 5/14/3
f 19/66/3 8/24/3 6/18/3 24/84/3
f 3/8/8 18/61/8 22/76/8 7/21/8
f 5/15/9 28/101/9 10/29/9 1/2/9
f 27/96/10 25/88/10 13/42/10 11/34/10
f 9/26/11 10/30/11 11/35/11
f 12/39/12 13/43/12 14/48/12
f 23/80/13 24/85/13 25/89/13
f 26/93/14 27/97/14 28/102/14
f 11/36/15 13/44/15 12/40/15 9/27/15
f 16/56/16 18/62/16 17/59/16 15/52/16
f 20/70/17 21/73/17 22/77/17 19/67/17
f 25/90/18 27/98/18 26/94/18 23/81/18
f 27/99/19 11/37/19 10/31/19 28/103/19
f 24/86/20 14/49/20 13/45/20 25/91/20
f 21/74/21 26/95/21 28/104/21 22/78/21
f 19/68/22 24/87/22 23/82/22 20/71/22
f 9/28/23 17/60/23 18/63/23 10/32/23
f 14/50/24 16/57/24 15/53/24 12/41/24
f 1/3/4 10/33/4 18/64/4 3/9/4
